<mxfile host="65bd71144e">
    <diagram id="zrh2w7oLG3WJKmFHi_xe" name="第 1 页">
        <mxGraphModel dx="465" dy="410" grid="1" gridSize="10" guides="1" tooltips="1" connect="1" arrows="1" fold="1" page="1" pageScale="1" pageWidth="827" pageHeight="1169" math="0" shadow="0">
            <root>
                <mxCell id="0"/>
                <mxCell id="1" parent="0"/>
                <mxCell id="2" value="[I]Set" style="swimlane;fontStyle=1;align=center;verticalAlign=top;childLayout=stackLayout;horizontal=1;startSize=30;horizontalStack=0;resizeParent=1;resizeLast=0;collapsible=1;marginBottom=0;rounded=0;shadow=0;strokeWidth=1;fontFamily=Verdana;labelBackgroundColor=none;labelBorderColor=none;fillColor=#647687;fontColor=#ffffff;strokeColor=#314354;swimlaneLine=0;connectable=1;allowArrows=1;expand=1;" parent="1" vertex="1">
                    <mxGeometry x="640" y="240" width="160" height="30" as="geometry">
                        <mxRectangle x="230" y="140" width="160" height="26" as="alternateBounds"/>
                    </mxGeometry>
                </mxCell>
                <mxCell id="15" style="edgeStyle=elbowEdgeStyle;html=1;entryX=0.25;entryY=1;entryDx=0;entryDy=0;strokeWidth=2;strokeColor=#FFB366;" edge="1" parent="1" source="5" target="7">
                    <mxGeometry relative="1" as="geometry"/>
                </mxCell>
                <mxCell id="5" value="[I]List" style="swimlane;fontStyle=1;align=center;verticalAlign=top;childLayout=stackLayout;horizontal=1;startSize=30;horizontalStack=0;resizeParent=1;resizeLast=0;collapsible=1;marginBottom=0;rounded=0;shadow=0;strokeWidth=1;fontFamily=Verdana;labelBackgroundColor=none;labelBorderColor=none;fillColor=#6d8764;fontColor=#ffffff;strokeColor=#3A5431;swimlaneLine=0;connectable=1;allowArrows=1;expand=1;movable=1;" parent="1" vertex="1">
                    <mxGeometry x="320" y="240" width="160" height="30" as="geometry">
                        <mxRectangle x="200" y="160" width="160" height="26" as="alternateBounds"/>
                    </mxGeometry>
                </mxCell>
                <mxCell id="6" style="edgeStyle=elbowEdgeStyle;elbow=vertical;html=1;entryX=0.25;entryY=0;entryDx=0;entryDy=0;strokeWidth=2;strokeColor=#FFB366;startArrow=classic;startFill=1;endArrow=none;endFill=0;exitX=0.75;exitY=1;exitDx=0;exitDy=0;" parent="1" source="7" target="2" edge="1">
                    <mxGeometry relative="1" as="geometry">
                        <Array as="points">
                            <mxPoint x="520" y="220"/>
                        </Array>
                    </mxGeometry>
                </mxCell>
                <mxCell id="22" style="edgeStyle=elbowEdgeStyle;elbow=vertical;html=1;strokeColor=#FFB366;strokeWidth=2;" edge="1" parent="1" source="7" target="21">
                    <mxGeometry relative="1" as="geometry"/>
                </mxCell>
                <mxCell id="7" value="[I]Collection" style="swimlane;fontStyle=1;align=center;verticalAlign=top;childLayout=stackLayout;horizontal=1;startSize=30;horizontalStack=0;resizeParent=1;resizeLast=0;collapsible=1;marginBottom=0;rounded=0;shadow=0;strokeWidth=1;fontFamily=Verdana;labelBackgroundColor=none;labelBorderColor=none;fillColor=#6d8764;fontColor=#ffffff;strokeColor=#3A5431;swimlaneLine=0;connectable=1;allowArrows=1;expand=1;pointerEvents=1;deletable=1;cloneable=1;rotatable=1;resizable=1;" parent="1" vertex="1">
                    <mxGeometry x="480" y="160" width="160" height="30" as="geometry">
                        <mxRectangle x="480" y="160" width="160" height="26" as="alternateBounds"/>
                    </mxGeometry>
                </mxCell>
                <mxCell id="10" value="ArrayList" style="swimlane;fontStyle=1;align=center;verticalAlign=top;childLayout=stackLayout;horizontal=1;startSize=30;horizontalStack=0;resizeParent=1;resizeLast=0;collapsible=1;marginBottom=0;rounded=0;shadow=0;strokeWidth=1;fontFamily=Verdana;labelBackgroundColor=none;labelBorderColor=none;fillColor=#76608a;fontColor=#ffffff;strokeColor=#432D57;swimlaneLine=0;connectable=1;allowArrows=1;expand=1;" parent="1" vertex="1">
                    <mxGeometry x="230" y="330" width="100" height="30" as="geometry">
                        <mxRectangle x="230" y="140" width="160" height="26" as="alternateBounds"/>
                    </mxGeometry>
                </mxCell>
                <mxCell id="12" style="edgeStyle=elbowEdgeStyle;html=1;elbow=vertical;dashed=1;strokeWidth=2;strokeColor=#FFB366;exitX=0.25;exitY=1;exitDx=0;exitDy=0;entryX=0.5;entryY=0;entryDx=0;entryDy=0;startArrow=classic;startFill=1;endArrow=none;endFill=0;" parent="1" source="5" target="10" edge="1">
                    <mxGeometry relative="1" as="geometry">
                        <Array as="points">
                            <mxPoint x="450" y="300"/>
                        </Array>
                        <mxPoint x="310" y="200" as="sourcePoint"/>
                        <mxPoint x="450" y="250" as="targetPoint"/>
                    </mxGeometry>
                </mxCell>
                <mxCell id="19" style="edgeStyle=elbowEdgeStyle;html=1;entryX=0.5;entryY=1;entryDx=0;entryDy=0;dashed=1;strokeColor=#FFB366;strokeWidth=2;exitX=0.5;exitY=0;exitDx=0;exitDy=0;elbow=vertical;" edge="1" parent="1" source="13" target="5">
                    <mxGeometry relative="1" as="geometry">
                        <Array as="points">
                            <mxPoint x="400" y="310"/>
                        </Array>
                    </mxGeometry>
                </mxCell>
                <mxCell id="13" value="LinkedList" style="swimlane;fontStyle=1;align=center;verticalAlign=top;childLayout=stackLayout;horizontal=1;startSize=30;horizontalStack=0;resizeParent=1;resizeLast=0;collapsible=1;marginBottom=0;rounded=0;shadow=0;strokeWidth=1;fontFamily=Verdana;labelBackgroundColor=none;labelBorderColor=none;fillColor=#76608a;fontColor=#ffffff;strokeColor=#432D57;swimlaneLine=0;connectable=1;allowArrows=1;expand=1;" vertex="1" parent="1">
                    <mxGeometry x="350" y="330" width="100" height="30" as="geometry">
                        <mxRectangle x="230" y="140" width="160" height="26" as="alternateBounds"/>
                    </mxGeometry>
                </mxCell>
                <mxCell id="20" style="edgeStyle=elbowEdgeStyle;html=1;entryX=0.75;entryY=1;entryDx=0;entryDy=0;dashed=1;strokeColor=#FFB366;strokeWidth=2;exitX=0.5;exitY=0;exitDx=0;exitDy=0;elbow=vertical;" edge="1" parent="1" source="14" target="5">
                    <mxGeometry relative="1" as="geometry"/>
                </mxCell>
                <mxCell id="14" value="Vector" style="swimlane;fontStyle=1;align=center;verticalAlign=top;childLayout=stackLayout;horizontal=1;startSize=30;horizontalStack=0;resizeParent=1;resizeLast=0;collapsible=1;marginBottom=0;rounded=0;shadow=0;strokeWidth=1;fontFamily=Verdana;labelBackgroundColor=none;labelBorderColor=none;fillColor=#76608a;fontColor=#ffffff;strokeColor=#432D57;swimlaneLine=0;connectable=1;allowArrows=1;expand=1;" vertex="1" parent="1">
                    <mxGeometry x="470" y="330" width="100" height="30" as="geometry">
                        <mxRectangle x="230" y="140" width="160" height="26" as="alternateBounds"/>
                    </mxGeometry>
                </mxCell>
                <mxCell id="23" style="edgeStyle=elbowEdgeStyle;elbow=vertical;html=1;entryX=0.25;entryY=1;entryDx=0;entryDy=0;strokeColor=#FFB366;strokeWidth=2;dashed=1;" edge="1" parent="1" source="16" target="2">
                    <mxGeometry relative="1" as="geometry"/>
                </mxCell>
                <mxCell id="16" value="HashSet" style="swimlane;fontStyle=1;align=center;verticalAlign=top;childLayout=stackLayout;horizontal=1;startSize=30;horizontalStack=0;resizeParent=1;resizeLast=0;collapsible=1;marginBottom=0;rounded=0;shadow=0;strokeWidth=1;fontFamily=Verdana;labelBackgroundColor=none;labelBorderColor=none;fillColor=#76608a;fontColor=#ffffff;strokeColor=#432D57;swimlaneLine=0;connectable=1;allowArrows=1;expand=1;" vertex="1" parent="1">
                    <mxGeometry x="610" y="330" width="100" height="30" as="geometry">
                        <mxRectangle x="230" y="140" width="160" height="26" as="alternateBounds"/>
                    </mxGeometry>
                </mxCell>
                <mxCell id="24" style="edgeStyle=elbowEdgeStyle;elbow=vertical;html=1;entryX=0.75;entryY=1;entryDx=0;entryDy=0;strokeColor=#FFB366;strokeWidth=2;dashed=1;" edge="1" parent="1" source="17" target="2">
                    <mxGeometry relative="1" as="geometry"/>
                </mxCell>
                <mxCell id="17" value="TreeSet" style="swimlane;fontStyle=1;align=center;verticalAlign=top;childLayout=stackLayout;horizontal=1;startSize=30;horizontalStack=0;resizeParent=1;resizeLast=0;collapsible=1;marginBottom=0;rounded=0;shadow=0;strokeWidth=1;fontFamily=Verdana;labelBackgroundColor=none;labelBorderColor=none;fillColor=#76608a;fontColor=#ffffff;strokeColor=#432D57;swimlaneLine=0;connectable=1;allowArrows=1;expand=1;" vertex="1" parent="1">
                    <mxGeometry x="730" y="330" width="100" height="30" as="geometry">
                        <mxRectangle x="230" y="140" width="160" height="26" as="alternateBounds"/>
                    </mxGeometry>
                </mxCell>
                <mxCell id="21" value="[I]Iterable" style="swimlane;fontStyle=1;align=center;verticalAlign=top;childLayout=stackLayout;horizontal=1;startSize=30;horizontalStack=0;resizeParent=1;resizeLast=0;collapsible=1;marginBottom=0;rounded=0;shadow=0;strokeWidth=1;fontFamily=Verdana;labelBackgroundColor=none;labelBorderColor=none;fillColor=#6d8764;fontColor=#ffffff;strokeColor=#3A5431;swimlaneLine=0;connectable=1;allowArrows=1;expand=1;pointerEvents=1;deletable=1;cloneable=1;rotatable=1;resizable=1;" vertex="1" parent="1">
                    <mxGeometry x="480" y="100" width="160" height="30" as="geometry">
                        <mxRectangle x="480" y="110" width="160" height="26" as="alternateBounds"/>
                    </mxGeometry>
                </mxCell>
                <mxCell id="25" value="&lt;font color=&quot;#ffffff&quot; style=&quot;font-size: 16px;&quot;&gt;单列集合&lt;/font&gt;" style="rounded=1;whiteSpace=wrap;html=1;fillColor=#fa6800;fontColor=#000000;strokeColor=#C73500;fontFamily=Verdana;fontSize=16;" vertex="1" parent="1">
                    <mxGeometry x="310" y="90" width="120" height="60" as="geometry"/>
                </mxCell>
                <mxCell id="27" value="HashMap" style="swimlane;fontStyle=1;align=center;verticalAlign=top;childLayout=stackLayout;horizontal=1;startSize=30;horizontalStack=0;resizeParent=1;resizeLast=0;collapsible=1;marginBottom=0;rounded=0;shadow=0;strokeWidth=1;fontFamily=Verdana;labelBackgroundColor=none;labelBorderColor=none;fillColor=#647687;fontColor=#ffffff;strokeColor=#314354;swimlaneLine=0;connectable=1;allowArrows=1;expand=1;" vertex="1" parent="1">
                    <mxGeometry x="513" y="500" width="100" height="30" as="geometry">
                        <mxRectangle x="230" y="140" width="160" height="26" as="alternateBounds"/>
                    </mxGeometry>
                </mxCell>
                <mxCell id="28" style="edgeStyle=elbowEdgeStyle;html=1;entryX=0.25;entryY=1;entryDx=0;entryDy=0;strokeWidth=2;strokeColor=#FFB366;dashed=1;" edge="1" parent="1" source="29" target="32">
                    <mxGeometry relative="1" as="geometry"/>
                </mxCell>
                <mxCell id="29" value="Hashtable" style="swimlane;fontStyle=1;align=center;verticalAlign=top;childLayout=stackLayout;horizontal=1;startSize=30;horizontalStack=0;resizeParent=1;resizeLast=0;collapsible=1;marginBottom=0;rounded=0;shadow=0;strokeWidth=1;fontFamily=Verdana;labelBackgroundColor=none;labelBorderColor=none;fillColor=#6d8764;fontColor=#ffffff;strokeColor=#3A5431;swimlaneLine=0;connectable=1;allowArrows=1;expand=1;movable=1;" vertex="1" parent="1">
                    <mxGeometry x="383" y="500" width="100" height="30" as="geometry">
                        <mxRectangle x="200" y="160" width="160" height="26" as="alternateBounds"/>
                    </mxGeometry>
                </mxCell>
                <mxCell id="30" style="edgeStyle=elbowEdgeStyle;elbow=vertical;html=1;entryX=0.5;entryY=0;entryDx=0;entryDy=0;strokeWidth=2;strokeColor=#FFB366;startArrow=classic;startFill=1;endArrow=none;endFill=0;exitX=0.5;exitY=1;exitDx=0;exitDy=0;dashed=1;" edge="1" parent="1" source="32" target="27">
                    <mxGeometry relative="1" as="geometry">
                        <Array as="points">
                            <mxPoint x="523" y="480"/>
                        </Array>
                    </mxGeometry>
                </mxCell>
                <mxCell id="32" value="[I]Map" style="swimlane;fontStyle=1;align=center;verticalAlign=top;childLayout=stackLayout;horizontal=1;startSize=30;horizontalStack=0;resizeParent=1;resizeLast=0;collapsible=1;marginBottom=0;rounded=0;shadow=0;strokeWidth=1;fontFamily=Verdana;labelBackgroundColor=none;labelBorderColor=none;fillColor=#6d8764;fontColor=#ffffff;strokeColor=#3A5431;swimlaneLine=0;connectable=1;allowArrows=1;expand=1;pointerEvents=1;deletable=1;cloneable=1;rotatable=1;resizable=1;" vertex="1" parent="1">
                    <mxGeometry x="483" y="420" width="160" height="30" as="geometry">
                        <mxRectangle x="480" y="160" width="160" height="26" as="alternateBounds"/>
                    </mxGeometry>
                </mxCell>
                <mxCell id="47" style="edgeStyle=elbowEdgeStyle;elbow=vertical;html=1;fontFamily=Verdana;fontSize=16;fontColor=#FFFFFF;strokeColor=#FFB366;strokeWidth=2;" edge="1" parent="1" source="33" target="29">
                    <mxGeometry relative="1" as="geometry"/>
                </mxCell>
                <mxCell id="33" value="Properties" style="swimlane;fontStyle=1;align=center;verticalAlign=top;childLayout=stackLayout;horizontal=1;startSize=30;horizontalStack=0;resizeParent=1;resizeLast=0;collapsible=1;marginBottom=0;rounded=0;shadow=0;strokeWidth=1;fontFamily=Verdana;labelBackgroundColor=none;labelBorderColor=none;fillColor=#76608a;fontColor=#ffffff;strokeColor=#432D57;swimlaneLine=0;connectable=1;allowArrows=1;expand=1;" vertex="1" parent="1">
                    <mxGeometry x="343" y="580" width="100" height="30" as="geometry">
                        <mxRectangle x="230" y="140" width="160" height="26" as="alternateBounds"/>
                    </mxGeometry>
                </mxCell>
                <mxCell id="44" value="&lt;font color=&quot;#ffffff&quot; style=&quot;font-size: 16px&quot;&gt;双列集合&lt;/font&gt;" style="rounded=1;whiteSpace=wrap;html=1;fillColor=#fa6800;fontColor=#000000;strokeColor=#C73500;fontFamily=Verdana;fontSize=16;" vertex="1" parent="1">
                    <mxGeometry x="310" y="405" width="120" height="60" as="geometry"/>
                </mxCell>
                <mxCell id="49" style="edgeStyle=elbowEdgeStyle;elbow=vertical;html=1;entryX=0.75;entryY=1;entryDx=0;entryDy=0;fontFamily=Verdana;fontSize=16;fontColor=#FFFFFF;strokeColor=#FFB366;strokeWidth=2;dashed=1;" edge="1" parent="1" source="45" target="32">
                    <mxGeometry relative="1" as="geometry"/>
                </mxCell>
                <mxCell id="45" value="TreeMap" style="swimlane;fontStyle=1;align=center;verticalAlign=top;childLayout=stackLayout;horizontal=1;startSize=30;horizontalStack=0;resizeParent=1;resizeLast=0;collapsible=1;marginBottom=0;rounded=0;shadow=0;strokeWidth=1;fontFamily=Verdana;labelBackgroundColor=none;labelBorderColor=none;fillColor=#647687;fontColor=#ffffff;strokeColor=#314354;swimlaneLine=0;connectable=1;allowArrows=1;expand=1;" vertex="1" parent="1">
                    <mxGeometry x="643" y="500" width="100" height="30" as="geometry">
                        <mxRectangle x="230" y="140" width="160" height="26" as="alternateBounds"/>
                    </mxGeometry>
                </mxCell>
                <mxCell id="48" style="edgeStyle=elbowEdgeStyle;elbow=vertical;html=1;fontFamily=Verdana;fontSize=16;fontColor=#FFFFFF;strokeColor=#FFB366;strokeWidth=2;" edge="1" parent="1" source="46" target="27">
                    <mxGeometry relative="1" as="geometry"/>
                </mxCell>
                <mxCell id="46" value="LinkedHashMap" style="swimlane;fontStyle=1;align=center;verticalAlign=top;childLayout=stackLayout;horizontal=1;startSize=30;horizontalStack=0;resizeParent=1;resizeLast=0;collapsible=1;marginBottom=0;rounded=0;shadow=0;strokeWidth=1;fontFamily=Verdana;labelBackgroundColor=none;labelBorderColor=none;fillColor=#76608a;fontColor=#ffffff;strokeColor=#432D57;swimlaneLine=0;connectable=1;allowArrows=1;expand=1;" vertex="1" parent="1">
                    <mxGeometry x="493" y="580" width="140" height="30" as="geometry">
                        <mxRectangle x="230" y="140" width="160" height="26" as="alternateBounds"/>
                    </mxGeometry>
                </mxCell>
            </root>
        </mxGraphModel>
    </diagram>
</mxfile>